<mxfile host="Electron" modified="2024-07-30T18:39:27.028Z" agent="Mozilla/5.0 (Macintosh; Intel Mac OS X 10_15_7) AppleWebKit/537.36 (KHTML, like Gecko) draw.io/24.5.1 Chrome/124.0.6367.207 Electron/30.0.6 Safari/537.36" etag="w3dtJFomvkQWhQ-jmgPg" version="24.5.1" type="device">
  <diagram name="Page-1" id="1kvuuoHmhfpBq8H3oKxq">
    <mxGraphModel dx="1434" dy="854" grid="1" gridSize="10" guides="1" tooltips="1" connect="1" arrows="1" fold="1" page="1" pageScale="1" pageWidth="1100" pageHeight="850" math="0" shadow="0">
      <root>
        <mxCell id="0" />
        <mxCell id="1" parent="0" />
        <mxCell id="fjItEJ-B4P440TCD5D7H-1" value="db_identifier_" style="ellipse;whiteSpace=wrap;html=1;aspect=fixed;" vertex="1" parent="1">
          <mxGeometry x="560" y="280" width="80" height="80" as="geometry" />
        </mxCell>
        <mxCell id="fjItEJ-B4P440TCD5D7H-5" value="" style="edgeStyle=orthogonalEdgeStyle;rounded=0;orthogonalLoop=1;jettySize=auto;html=1;" edge="1" parent="1" source="fjItEJ-B4P440TCD5D7H-2" target="fjItEJ-B4P440TCD5D7H-1">
          <mxGeometry relative="1" as="geometry" />
        </mxCell>
        <mxCell id="fjItEJ-B4P440TCD5D7H-6" value="rdf:type" style="edgeLabel;html=1;align=center;verticalAlign=middle;resizable=0;points=[];" vertex="1" connectable="0" parent="fjItEJ-B4P440TCD5D7H-5">
          <mxGeometry x="-0.16" relative="1" as="geometry">
            <mxPoint as="offset" />
          </mxGeometry>
        </mxCell>
        <mxCell id="fjItEJ-B4P440TCD5D7H-2" value="pmd:Identifier" style="ellipse;whiteSpace=wrap;html=1;aspect=fixed;" vertex="1" parent="1">
          <mxGeometry x="560" y="410" width="80" height="80" as="geometry" />
        </mxCell>
        <mxCell id="fjItEJ-B4P440TCD5D7H-4" value="" style="edgeStyle=orthogonalEdgeStyle;rounded=0;orthogonalLoop=1;jettySize=auto;html=1;" edge="1" parent="1" source="fjItEJ-B4P440TCD5D7H-3" target="fjItEJ-B4P440TCD5D7H-2">
          <mxGeometry relative="1" as="geometry" />
        </mxCell>
        <mxCell id="fjItEJ-B4P440TCD5D7H-7" value="rdfs:subClassOf" style="edgeLabel;html=1;align=center;verticalAlign=middle;resizable=0;points=[];" vertex="1" connectable="0" parent="fjItEJ-B4P440TCD5D7H-4">
          <mxGeometry x="-0.08" relative="1" as="geometry">
            <mxPoint as="offset" />
          </mxGeometry>
        </mxCell>
        <mxCell id="fjItEJ-B4P440TCD5D7H-3" value="pmd:ValueObject" style="ellipse;whiteSpace=wrap;html=1;aspect=fixed;" vertex="1" parent="1">
          <mxGeometry x="560" y="540" width="80" height="80" as="geometry" />
        </mxCell>
      </root>
    </mxGraphModel>
  </diagram>
</mxfile>
